# xmcd
#
# Track frame offsets:
#	150
#	18627
#	30590
#	44580
#	58212
#	74722
#	93562
#	106017
#	117992
#	129437
#	144035
#	156587
#	174697
#	192350
#	208635
#	223080
#	242635
#	259107
#	270822
#	284625
#	301570
#
# Disc length: 4224
#
# Revision: 1
# Processed by: cddbd v1.5.1PL0 Copyright (c) Steve Scherf et al.
# Submitted via: CDex 1.50beta9
# Normalized: r0:TRMNUM
#
DISCID=3b107e15
DTITLE=The St. Louis Ragtimers - Volume 3
DYEAR=2001
DGENRE=Jazz
TTITLE0=I've Been Floating Down The Old Green River
TTITLE1=Mississippi Mud
TTITLE2=At The Mississippi Cabaret
TTITLE3=I Love to Go Swimmin' With Wimmin'
TTITLE4=I Wish I was In Peoria
TTITLE5=Give Me The Sultan's Harem
TTITLE6=Sadie Green, The Vamp of New Orleans
TTITLE7=Since My Best Gal Turned Me Down
TTITLE8=Heebie Jeebies
TTITLE9=Kerry Mill's Ragtime dance
TTITLE10=Red Hot Pepper Stomp
TTITLE11=The Georgia Grind
TTITLE12=Just A Little To Stay Here
TTITLE13=Loading Up The Mandy Lee
TTITLE14=The Chant
TTITLE15=Snag It
TTITLE16=Honky Tonk Town
TTITLE17=Brown Skin Girl
TTITLE18=Black Bottom Stomp
TTITLE19=Everybody's Jazzin' It
TTITLE20=Sidewalk Blues
EXTD=YEAR: 2001
EXTT0=
EXTT1=
EXTT2=
EXTT3=
EXTT4=
EXTT5=
EXTT6=
EXTT7=
EXTT8=
EXTT9=
EXTT10=
EXTT11=
EXTT12=
EXTT13=
EXTT14=
EXTT15=
EXTT16=
EXTT17=
EXTT18=
EXTT19=
EXTT20=
PLAYORDER=
